{
  "accessors": [
    {
      "bufferView": 1,
      "componentType": 5126,
      "count": 1114,
      "max": [
        0.5872793793678284,
        0.309759259223938,
        0.4922943413257599
      ],
      "min": [
        -0.5062939524650574,
        -0.029863636940717697,
        -0.5050302147865295
      ],
      "type": "VEC3"
    },
    {
      "bufferView": 1,
      "byteOffset": 13368,
      "componentType": 5126,
      "count": 1114,
      "max": [
        0.9950616955757141,
        0.9943199157714844,
        0.9970241189002991
      ],
      "min": [
        -0.9853470325469971,
        -0.9989797472953796,
        -0.9928134679794312
      ],
      "type": "VEC3"
    },
    {
      "bufferView": 0,
      "componentType": 5125,
      "count": 1638,
      "type": "SCALAR"
    },
    {
      "bufferView": 1,
      "byteOffset": 26736,
      "componentType": 5126,
      "count": 106,
      "max": [
        0.5432453751564026,
        0.2709730267524719,
        0.4546736478805542
      ],
      "min": [
        -0.4695054590702057,
        0.015571619383990765,
        -0.4701830744743347
      ],
      "type": "VEC3"
    },
    {
      "bufferView": 1,
      "byteOffset": 28008,
      "componentType": 5126,
      "count": 106,
      "max": [
        0.8530982136726379,
        0.05508698895573616,
        0.9452810883522034
      ],
      "min": [
        -0.7439754009246826,
        -0.27216485142707825,
        -0.9419198632240295
      ],
      "type": "VEC3"
    },
    {
      "bufferView": 0,
      "byteOffset": 6552,
      "componentType": 5125,
      "count": 210,
      "type": "SCALAR"
    },
    {
      "bufferView": 1,
      "byteOffset": 29280,
      "componentType": 5126,
      "count": 204,
      "max": [
        0.3684634268283844,
        1.1588168144226074,
        0.25601598620414734
      ],
      "min": [
        -0.3380119502544403,
        -0.006951832678169012,
        -0.32267293334007263
      ],
      "type": "VEC3"
    },
    {
      "bufferView": 1,
      "byteOffset": 31728,
      "componentType": 5126,
      "count": 204,
      "max": [
        0.9401549100875854,
        0.8898324370384216,
        0.9866193532943726
      ],
      "min": [
        -0.994311511516571,
        -0.9559120535850525,
        -0.9651623368263245
      ],
      "type": "VEC3"
    },
    {
      "bufferView": 0,
      "byteOffset": 7392,
      "componentType": 5125,
      "count": 204,
      "type": "SCALAR"
    }
  ],
  "asset": {
    "extras": {
      "author": "komal3 (https://sketchfab.com/komal3)",
      "license": "CC-BY-4.0 (http://creativecommons.org/licenses/by/4.0/)",
      "source": "https://sketchfab.com/3d-models/bonfire--fire-b5dd6e8a614a47928cbae0c6207b75f2",
      "title": "Bonfire_ Fire"
    },
    "generator": "Sketchfab-14.81.0",
    "version": "2.0"
  },
  "bufferViews": [
    {
      "buffer": 0,
      "byteLength": 8208,
      "name": "floatBufferViews",
      "target": 34963
    },
    {
      "buffer": 0,
      "byteLength": 34176,
      "byteOffset": 8208,
      "byteStride": 12,
      "name": "floatBufferViews",
      "target": 34962
    }
  ],
  "buffers": [
    {
      "byteLength": 42384,
      "uri": "scene.bin"
    }
  ],
  "materials": [
    {
      "doubleSided": true,
      "name": "Wood",
      "pbrMetallicRoughness": {
        "baseColorFactor": [
          0.152919,
          0.0854583,
          0.066012,
          1.0
        ],
        "metallicFactor": 0.0,
        "roughnessFactor": 0.5
      }
    },
    {
      "doubleSided": true,
      "name": "LightWood",
      "pbrMetallicRoughness": {
        "baseColorFactor": [
          0.184464,
          0.104234,
          0.0869307,
          1.0
        ],
        "metallicFactor": 0.0,
        "roughnessFactor": 0.5
      }
    },
    {
      "doubleSided": true,
      "name": "Fire",
      "pbrMetallicRoughness": {
        "baseColorFactor": [
          0.486894,
          0.125172,
          0.019633,
          1.0
        ],
        "metallicFactor": 0.0,
        "roughnessFactor": 0.5
      }
    }
  ],
  "meshes": [
    {
      "name": "Object_0",
      "primitives": [
        {
          "attributes": {
            "NORMAL": 1,
            "POSITION": 0
          },
          "indices": 2,
          "material": 0,
          "mode": 4
        }
      ]
    },
    {
      "name": "Object_1",
      "primitives": [
        {
          "attributes": {
            "NORMAL": 4,
            "POSITION": 3
          },
          "indices": 5,
          "material": 1,
          "mode": 4
        }
      ]
    },
    {
      "name": "Object_2",
      "primitives": [
        {
          "attributes": {
            "NORMAL": 7,
            "POSITION": 6
          },
          "indices": 8,
          "material": 2,
          "mode": 4
        }
      ]
    }
  ],
  "nodes": [
    {
      "children": [
        1
      ],
      "matrix": [
        1.0,
        0.0,
        0.0,
        0.0,
        0.0,
        2.220446049250313e-16,
        -1.0,
        0.0,
        0.0,
        1.0,
        2.220446049250313e-16,
        0.0,
        0.0,
        0.0,
        0.0,
        1.0
      ],
      "name": "Sketchfab_model"
    },
    {
      "children": [
        2
      ],
      "name": "root"
    },
    {
      "children": [
        3
      ],
      "matrix": [
        1.0,
        0.0,
        0.0,
        0.0,
        0.0,
        2.220446049250313e-16,
        1.0,
        0.0,
        0.0,
        -1.0,
        2.220446049250313e-16,
        0.0,
        0.0,
        0.0,
        0.0,
        1.0
      ],
      "name": "GLTF_SceneRootNode"
    },
    {
      "children": [
        4,
        5,
        6
      ],
      "matrix": [
        1.9894319772720337,
        0.0,
        0.0,
        0.0,
        0.0,
        1.9894319772720337,
        0.0,
        0.0,
        0.0,
        0.0,
        1.9894319772720337,
        0.0,
        0.0,
        0.0,
        0.0,
        1.0
      ],
      "name": "Bonfire_Fire_0"
    },
    {
      "mesh": 0,
      "name": "Object_4"
    },
    {
      "mesh": 1,
      "name": "Object_5"
    },
    {
      "mesh": 2,
      "name": "Object_6"
    }
  ],
  "scene": 0,
  "scenes": [
    {
      "name": "Sketchfab_Scene",
      "nodes": [
        0
      ]
    }
  ]
}
